<svg width="74" height="96" viewBox="0 0 74 96" fill="none" xmlns="http://www.w3.org/2000/svg">
<path d="M2.46984 0.259983C1.71698 0.579914 0.426364 2.29956 0.195897 3.31935C-0.065299 4.4991 -0.065299 30.6936 0.195897 31.8734C0.441729 32.9732 1.71698 34.6328 2.56203 34.9528C3.46853 35.2927 23.596 35.2927 24.5025 34.9528C25.3476 34.6328 26.6228 32.9732 26.8686 31.8734C27.1298 30.7136 27.1298 4.4991 26.8686 3.35934C26.7764 2.91943 26.3923 2.11959 26.0236 1.5997C24.8713 -0.0599518 25.3936 3.8147e-05 13.4708 0.020031C6.31096 0.0400276 2.83859 0.12001 2.46984 0.259983ZM24.2106 3.69927L24.5947 4.17917V17.5964V31.0136L24.2106 31.4935L23.8418 31.9934H13.5323H3.2227L2.85395 31.4935L2.46984 31.0136V17.5964V4.17917L2.85395 3.69927L3.2227 3.19937H13.5323H23.8418L24.2106 3.69927Z" fill="white"/>
<path d="M34.4279 0.260029C33.675 0.579964 32.3844 2.2996 32.1539 3.31939C31.8927 4.49915 31.8927 30.6937 32.1539 31.8734C32.3998 32.9732 33.675 34.6329 34.5201 34.9528C34.8734 35.0928 35.9336 35.1927 36.8708 35.1927C38.4841 35.1927 38.607 35.1728 38.9604 34.6929C39.2062 34.3929 39.3445 33.973 39.3445 33.5931C39.3445 33.2132 39.2062 32.7932 38.9604 32.4933C38.607 32.0134 38.4841 31.9934 36.8862 31.9934C35.2883 31.9934 35.1654 31.9734 34.812 31.4935L34.4279 31.0136V17.5964V4.17921L34.812 3.69931L35.1807 3.19942H45.4903H55.7999L56.1686 2.69952C56.4144 2.39958 56.5527 1.97967 56.5527 1.59975C56.5527 1.21983 56.4144 0.799915 56.1686 0.499981L55.7999 8.39233e-05L45.3828 0.0200806C38.2536 0.0400734 34.7966 0.12006 34.4279 0.260029Z" fill="white"/>
<path d="M52.6041 10.8379L45.4904 20.0759L42.6787 16.4367C40.1896 13.2174 39.8055 12.7975 39.3599 12.7975C38.6993 12.7975 38.1154 13.5573 38.1154 14.4371C38.1154 15.017 38.4688 15.5569 41.5417 19.536C44.6761 23.6352 44.9987 23.9951 45.4904 23.9951C45.9974 23.9951 46.5198 23.3353 53.7411 13.9372C60.8088 4.75912 61.4694 3.83932 61.4694 3.23944C61.4694 2.35962 60.8856 1.59978 60.2095 1.59978C59.7486 1.59978 59.0726 2.41961 52.6041 10.8379Z" fill="white"/>
<path d="M56.9369 13.2972L56.5528 13.7771V22.3953V31.0135L56.1686 31.4934C55.7999 31.9933 55.7538 31.9933 53.3723 31.9733H50.9447L50.4838 31.1535C50.1919 30.6336 49.6387 30.0537 49.0242 29.6138C48.0869 28.954 47.9333 28.894 46.7195 28.914C45.6593 28.914 45.2752 29.014 44.6453 29.3939C43.6773 30.0137 42.7401 31.2135 42.2638 32.4932L41.8797 33.493L41.8336 49.1898L41.7875 64.8865L40.4969 61.4272C39.5136 58.8077 39.0219 57.728 38.438 56.9281C36.9938 54.9486 35.0732 54.1887 33.0758 54.8686C31.3396 55.4484 30.1259 56.4482 30.1259 57.3281C30.1259 57.608 31.017 62.287 32.1079 67.7459C33.9516 76.984 34.1513 77.8638 35.0118 80.2033C37.4547 86.9619 39.9745 91.8009 42.0487 93.7205C42.5864 94.2404 43.032 94.7403 43.032 94.8202C43.032 94.9202 43.201 95.2202 43.4161 95.4801C43.9078 96.14 44.6146 96.14 45.1062 95.4801C45.813 94.5803 45.4903 93.2206 44.2458 91.9608C41.849 89.5213 40.251 86.6419 37.7927 80.2833L36.4099 76.684L34.6584 67.8859C33.7058 63.0469 32.8915 58.9077 32.8607 58.6878C32.83 58.3878 32.9529 58.2479 33.4292 58.0279C34.7659 57.428 36.1334 58.0679 37.0091 59.6876C37.255 60.1275 38.4688 63.2668 39.7133 66.6861C40.9578 70.0854 42.1101 73.0448 42.2945 73.2247C42.7094 73.6846 43.37 73.6846 43.8156 73.2047L44.1844 72.8248L44.2612 53.4289C44.338 34.2129 44.338 34.0129 44.6607 33.473C45.2599 32.4132 45.7515 32.0933 46.7195 32.0933C47.6875 32.0933 48.1791 32.4132 48.7783 33.473C49.101 34.0129 49.101 34.2929 49.1778 46.2304L49.2546 58.4278L49.6234 58.8077C50.4838 59.7276 51.4518 59.0477 51.6515 57.388C51.7898 56.2283 52.0971 55.5684 52.7731 54.9086C53.3723 54.3287 54.8166 54.3287 55.4158 54.9086C56.2762 55.7284 56.4606 56.2683 56.5528 58.2079C56.6142 59.8075 56.6757 60.0675 56.9983 60.4074C57.8587 61.3272 58.8267 60.6474 59.0264 58.9877C59.1647 57.828 59.472 57.1681 60.148 56.5082C60.7473 55.9283 62.1915 55.9283 62.7907 56.5082C63.7433 57.428 63.8509 57.808 63.9277 60.6274C64.0045 63.0469 64.0353 63.2468 64.3733 63.6067C65.2337 64.5266 66.2017 63.8467 66.4014 62.187C66.6319 60.2674 67.4615 59.2876 68.8443 59.2876C69.8123 59.2876 70.304 59.6076 70.9032 60.6674C71.2258 61.2072 71.2258 61.4472 71.2719 74.8444C71.3027 85.2022 71.2719 88.7015 71.1183 89.3814C70.8725 90.5611 69.6433 92.2008 68.7522 92.5407C68.2912 92.7207 66.2477 92.7807 61.4848 92.7807H54.8473L54.4786 93.2806C53.9715 93.9204 53.9715 94.8402 54.4786 95.5001L54.8627 96L61.9764 95.94L69.0748 95.88L70.1042 95.2402C71.5331 94.3603 72.4243 93.2406 73.1157 91.421L73.6842 89.9013V75.3043V60.6874L73.2693 59.6676C72.6547 58.1479 72.1938 57.528 71.1183 56.7682C70.2425 56.1683 70.0274 56.1083 68.8443 56.0883C67.7996 56.0883 67.4001 56.1883 66.8623 56.5482C66.4782 56.7882 66.1556 56.9881 66.1402 56.9881C66.1095 56.9881 65.9712 56.6482 65.8175 56.2283C65.4488 55.2085 64.4655 53.9688 63.5436 53.3889C62.9137 52.989 62.5449 52.889 61.4694 52.889C60.2863 52.889 60.0866 52.949 59.2569 53.5288L58.3504 54.1887L57.6436 53.2289C56.5835 51.7892 55.6923 51.3093 54.0944 51.3093C53.1572 51.3093 52.6502 51.3893 52.2968 51.6492C52.0202 51.8292 51.7744 51.9892 51.7129 51.9892C51.6669 51.9892 51.6361 48.21 51.6361 43.5909V35.1927H53.7257C54.9241 35.1927 56.0918 35.0927 56.4606 34.9527C57.3056 34.6328 58.5809 32.9731 58.8267 31.8734C58.965 31.2735 59.0111 28.614 59.0111 22.4153V13.7771L58.627 13.2972C58.3965 12.9773 58.0738 12.7973 57.7819 12.7973C57.49 12.7973 57.1673 12.9773 56.9369 13.2972Z" fill="white"/>
<path d="M2.46984 41.8512C1.71698 42.1712 0.426364 43.8908 0.195897 44.9106C-0.065299 46.0903 -0.065299 72.2849 0.195897 73.4646C0.441729 74.5644 1.71698 76.2241 2.56203 76.544C3.46853 76.8839 23.596 76.8839 24.5025 76.544C25.3476 76.2241 26.6228 74.5644 26.8686 73.4646C27.1298 72.3049 27.1298 46.0903 26.8686 44.9506C26.7764 44.5107 26.3923 43.7108 26.0236 43.191C24.8713 41.5313 25.3936 41.5913 13.4708 41.6113C6.31096 41.6313 2.83859 41.7113 2.46984 41.8512ZM24.2106 45.2905L24.5947 45.7704V59.1876V72.6048L24.2106 73.0847L23.8418 73.5846H13.5323H3.2227L2.85395 73.0847L2.46984 72.6048V59.1876V45.7704L2.85395 45.2905L3.2227 44.7906H13.5323H23.8418L24.2106 45.2905Z" fill="white"/>
</svg>
