<svg width="100" height="100" viewBox="0 0 100 100" fill="none" xmlns="http://www.w3.org/2000/svg">
<path d="M11.9508 0.191433C8.96309 0.939415 7.06893 3.81446 6.87366 7.8816C6.71744 11.2709 7.6157 14.4031 9.35364 16.5301L10.291 17.6988L9.29506 17.8391C7.42043 18.143 4.68658 19.1013 3.49541 19.8493C2.85101 20.27 1.93322 21.1349 1.44503 21.766C0.136692 23.5191 0 24.3372 0 30.7417V36.2113L0.488186 36.7723C1.05448 37.4736 1.56219 37.5203 2.16755 36.9126C2.6362 36.4685 2.6362 36.4217 2.73384 30.6482C2.85101 24.1502 2.83148 24.2203 4.39367 22.9814C7.77192 20.3401 17.7114 20.0129 22.2222 22.3971C23.7649 23.2152 24.7998 24.6878 24.7998 26.0902C24.7998 26.885 25.5028 27.7732 26.1472 27.7732C26.3816 27.7732 26.7916 27.4927 27.0846 27.1655C27.5337 26.6278 27.5727 26.4642 27.4556 25.3656C27.1822 23.0048 25.8348 20.9479 23.7454 19.6623C22.7299 19.0546 19.918 18.1196 18.2191 17.8391L17.1841 17.6755L18.0238 16.6704C19.7813 14.5667 20.8162 11.1073 20.6405 7.90498C20.3671 3.15998 18.1019 0.33168 14.3527 0.0745621C13.4935 0.027813 12.4194 0.0745621 11.9508 0.191433ZM15.329 3.48722C16.364 3.83784 17.4771 5.19355 17.77 6.50251C18.18 8.27897 17.9262 10.6865 17.1646 12.5097C16.2859 14.6134 15.2119 15.6185 13.845 15.6185C12.6733 15.6185 11.9898 15.2212 11.1306 14.0758C10.1933 12.7668 9.74419 11.3176 9.62703 9.14382C9.49033 6.89988 9.8223 5.56754 10.7206 4.53907C11.7555 3.34697 13.6301 2.92624 15.329 3.48722Z" fill="white"/>
<path d="M47.8618 0.30839C46.5729 0.752502 45.8309 1.29011 44.8741 2.45883C43.7415 3.86129 43.2923 5.3105 43.1947 7.92843C43.058 11.5982 43.7415 14.0993 45.5575 16.4601L46.4948 17.6989L45.5575 17.8392C39.7188 18.8443 36.614 21.4154 36.3601 25.4592C36.282 26.5812 36.3406 26.8617 36.6921 27.2824C37.5708 28.3343 38.5472 27.7733 38.9572 25.9501C39.2892 24.3606 39.6602 23.7061 40.578 23.0049C42.5308 21.5323 45.4404 20.8778 49.9902 20.8778C54.5597 20.8778 57.4497 21.5323 59.4025 23.0049C60.3203 23.7061 60.6913 24.3606 61.0232 25.9501C61.3162 27.2824 61.7067 27.7733 62.4292 27.7733C64.0109 27.7733 64.0891 24.758 62.5659 22.14C61.4919 20.2701 58.9533 18.8209 55.4189 18.0729L53.5052 17.6755L54.4425 16.4601C56.2195 14.1226 56.9225 11.5047 56.7858 7.88168C56.7272 6.26885 56.571 5.35725 56.239 4.44565C55.6923 2.90294 54.0715 1.07974 52.7827 0.542133C51.4353 -0.0188522 49.1506 -0.11235 47.8618 0.30839ZM51.572 3.51068C53.388 4.23528 54.1886 5.77799 54.1496 8.60629C54.1301 11.5047 53.1732 13.9824 51.6501 15.0576C48.8381 17.0211 45.87 13.7253 45.8309 8.60629C45.8114 5.84811 46.5729 4.25866 48.3304 3.51068C49.131 3.18344 50.7713 3.16006 51.572 3.51068Z" fill="white"/>
<path d="M84.3976 0.191441C83.2064 0.495308 81.6833 1.54715 80.9217 2.62238C78.4417 6.10516 78.9299 13.0707 81.9371 16.647L82.7378 17.6287L80.5116 18.143C75.5126 19.2883 72.9545 21.6257 72.5249 25.389C72.4077 26.4642 72.4468 26.6279 72.8959 27.1655C73.1888 27.4927 73.6184 27.7732 73.8723 27.7732C74.4776 27.7732 75.1806 26.8616 75.1806 26.0435C75.1806 23.8697 77.0553 22.3036 80.8436 21.3219C83.3626 20.6674 89.4357 20.7141 91.9547 21.4154C94.8643 22.2335 96.5827 23.4022 97.0709 24.9215C97.1685 25.2254 97.2466 27.8901 97.2466 30.8352V36.2113L97.7348 36.7723C97.9887 37.0996 98.3792 37.3567 98.6136 37.3567C98.8479 37.3567 99.2384 37.0996 99.4923 36.7723L99.9805 36.2113V30.7417C99.9805 24.3372 99.8438 23.5191 98.5354 21.766C98.0473 21.1349 97.1295 20.27 96.4851 19.8493C95.2939 19.1013 92.5601 18.143 90.6854 17.8391L89.6895 17.6988L90.5878 16.5769C93.6731 12.7902 94.0246 5.94153 91.3103 2.36526C89.9434 0.542053 86.8385 -0.439671 84.3976 0.191441ZM87.7758 3.48722C88.8108 3.83784 89.9239 5.19355 90.2168 6.50252C90.5292 7.90498 90.3535 10.78 89.8653 12.1357C89.3966 13.4213 88.4202 14.8004 87.6587 15.2913C87.3658 15.4549 86.6823 15.6185 86.1355 15.6185C84.7686 15.6185 83.6946 14.6134 82.8159 12.5097C82.0543 10.7099 81.8004 8.27897 82.191 6.54927C82.7768 3.95471 85.1982 2.64575 87.7758 3.48722Z" fill="white"/>
<path d="M29.2716 31.8871C27.7485 32.5182 26.5378 33.7804 25.7762 35.5802C25.1709 37.0294 25.0928 37.3801 25.0342 39.5539C24.9561 41.6342 25.0147 42.1484 25.4638 43.7613C26.0106 45.678 26.7135 47.0804 27.7094 48.2024C28.3734 48.9737 28.3343 49.2776 27.5727 49.2776C26.4792 49.2776 22.9447 50.4931 21.6364 51.3112C19.4298 52.6903 18.1605 54.8875 18.1605 57.3418C18.1605 58.5105 18.6097 59.0948 19.4689 59.0948C20.2304 59.0948 20.6991 58.4404 20.9139 57.0613C21.324 54.42 23.9992 52.924 29.4279 52.2695C31.322 52.0592 32.3374 52.0592 34.2121 52.2695C39.875 52.9708 42.4722 54.4433 42.8823 57.2015C43.0775 58.5572 43.4486 59.0948 44.2297 59.0948C45.1865 59.0948 45.7528 58.1599 45.577 56.8743C45.2646 54.5368 43.8782 52.3163 42.0621 51.1943C41.0076 50.5398 39.0354 49.862 37.2974 49.5114C36.4968 49.3477 35.7352 49.1841 35.6181 49.1607C35.4814 49.114 35.7743 48.5764 36.2625 47.9686C37.9809 45.8182 39.0354 41.9614 38.7424 38.876C38.4495 35.7672 37.2193 33.4765 35.1884 32.2844C34.2316 31.7235 33.802 31.63 32.1226 31.5832C30.7362 31.5365 29.916 31.63 29.2716 31.8871ZM34.173 35.3465C35.4814 36.1178 36.0281 37.5437 36.0281 40.1616C36.0086 41.8446 35.9305 42.3822 35.4423 43.621C33.6067 48.4829 29.6427 48.1556 28.0805 43.0133C27.6118 41.4706 27.6313 38.4787 28.1 37.2164C29.0178 34.8323 31.8102 33.944 34.173 35.3465Z" fill="white"/>
<path d="M65.4755 31.9572C63.0346 32.9623 61.5505 35.3699 61.2185 38.876C60.9451 41.9614 61.9996 45.8182 63.718 47.9686C64.2062 48.5764 64.4991 49.114 64.3624 49.1607C64.2453 49.1841 63.4837 49.3477 62.6831 49.5114C59.5977 50.1191 57.7036 51.0541 56.2195 52.7136C55.1845 53.859 54.5987 55.1913 54.4035 56.7808C54.2277 58.1832 54.7549 59.0948 55.7508 59.0948C56.5319 59.0948 56.903 58.5572 57.0982 57.2015C57.4888 54.5602 60.1445 52.9708 65.3583 52.2929C70.1426 51.6852 76.2937 52.9708 78.0707 54.9576C78.6761 55.6121 79.0861 56.5938 79.0861 57.295C79.0861 58.2066 79.7891 59.0948 80.5312 59.0948C81.4099 59.0948 81.82 58.4871 81.8004 57.2015C81.7419 53.298 78.5589 50.3762 73.3841 49.488C72.4273 49.3244 71.6657 49.114 71.6657 49.0439C71.6657 48.9504 71.9391 48.5998 72.2711 48.2024C73.267 47.0804 73.9699 45.7013 74.5167 43.7613C74.9658 42.1484 75.0244 41.6342 74.9463 39.5539C74.8877 37.3801 74.8096 37.0294 74.2043 35.5802C73.4232 33.757 72.2125 32.4948 70.6503 31.8871C69.3224 31.3728 66.7838 31.3962 65.4755 31.9572ZM69.4982 34.879C70.4355 35.066 71.4509 36.0711 71.8805 37.2164C72.3492 38.4787 72.3687 41.4706 71.9 43.0133C70.3378 48.1556 66.3933 48.4829 64.5187 43.621C64.0305 42.3588 63.9524 41.8679 63.9524 40.0447C63.9524 38.2449 64.0305 37.8008 64.4406 36.9359C65.0069 35.7205 65.8661 35.0426 67.1353 34.8089C68.0336 34.6219 68.1898 34.6219 69.4982 34.879Z" fill="white"/>
<path d="M11.9117 62.9051C10.0371 63.4427 8.72876 64.5179 7.88908 66.2476C6.03398 70.0342 6.73697 76.0648 9.3927 79.2437L10.3105 80.3423L9.41222 80.4826C5.81918 81.0669 3.22203 82.3058 1.67936 84.1757C0.117165 86.0457 0 86.6768 0 93.3852V98.8548L0.488186 99.4158C1.09354 100.164 1.6403 100.164 2.24566 99.4158L2.73384 98.8548V93.4086C2.73384 87.2378 2.7729 87.0975 4.31556 85.7418C6.13161 84.1757 10.3886 83.2641 14.8409 83.4745C20.1133 83.7316 23.2767 84.9705 24.4288 87.2378C24.7608 87.8923 24.7998 88.4532 24.7998 93.4086V98.8548L25.288 99.4158C25.8934 100.164 26.4401 100.164 27.065 99.4158L27.5727 98.8081L27.4946 92.9177C27.436 87.378 27.4165 86.9807 27.0064 86.0691C25.7176 83.1706 23.4915 81.6513 19.1174 80.7163L17.2232 80.319L18.0824 79.3139C21.1873 75.574 21.5388 68.3747 18.7659 64.962C17.2232 63.0687 14.3917 62.2272 11.9117 62.9051ZM15.8563 66.3645C17.9457 67.6501 18.6096 71.4834 17.3013 74.8961C16.403 77.2102 15.29 78.3088 13.7668 78.3088C11.5798 78.3088 9.78325 75.574 9.6075 71.9509C9.56844 70.9926 9.62703 69.7537 9.76372 69.1928C10.0371 67.9072 10.9939 66.6683 12.0094 66.2008C12.8881 65.8269 15.1142 65.897 15.8563 66.3645Z" fill="white"/>
<path d="M48.3109 62.8348C46.3191 63.3256 44.5226 65.0086 43.6829 67.2291C43.1947 68.5615 42.9994 72.1845 43.3314 74.0311C43.6634 75.8543 44.4249 77.6307 45.5185 79.0566L46.4753 80.3188L45.167 80.5759C40.5585 81.5109 37.8832 83.2873 36.7897 86.0922C36.3406 87.2142 36.321 87.4713 36.321 93.1513C36.321 98.7612 36.3406 99.0884 36.7116 99.5325C37.1607 100.07 37.8442 100.14 38.3909 99.6728C38.7424 99.3689 38.762 98.9248 38.8596 93.6422C38.9768 87.1441 39.0158 86.9104 40.578 85.7183C44.2882 82.89 54.2472 82.6562 58.68 85.2508C60.9842 86.6065 61.1014 87.0506 61.1209 93.8525C61.1209 98.7378 61.1404 99.0884 61.5114 99.5325C61.7262 99.7896 62.1168 100 62.3902 100C62.6635 100 63.0541 99.7896 63.2689 99.5325C63.6399 99.0884 63.6594 98.7612 63.6594 93.1513C63.6594 87.7285 63.6204 87.1675 63.2494 86.2091C62.1363 83.2406 59.3244 81.4408 54.2277 80.4824L53.4857 80.3422L54.462 79.0566C56.239 76.7191 56.9225 74.2648 56.7858 70.5717C56.6882 67.9537 56.2976 66.6915 55.1064 65.1254C53.5247 63.0685 50.9666 62.2036 48.3109 62.8348ZM52.2164 66.4578C54.794 67.9304 54.8526 74.0778 52.3335 77.0931C49.9121 79.9915 46.5144 77.6074 45.87 72.5585C45.538 70.0808 46.1629 67.6499 47.3345 66.7383C48.5062 65.8033 50.8299 65.6864 52.2164 66.4578Z" fill="white"/>
<path d="M84.5538 62.8349C81.4294 63.6297 79.5743 66.3645 79.34 70.5485C79.1642 73.7274 80.1992 77.2803 81.8981 79.3139L82.7573 80.319L80.8631 80.7163C76.489 81.6513 74.2629 83.1706 72.974 86.0691C72.564 86.9807 72.5444 87.378 72.4859 92.9177L72.4077 98.8081L72.9155 99.4158C73.5403 100.164 74.0871 100.164 74.6925 99.4158L75.1806 98.8548V93.3852C75.1806 88.0793 75.2002 87.8923 75.6298 87.1209C77.0162 84.6198 81.6442 83.194 87.3853 83.4745C91.6032 83.6849 94.8448 84.69 96.1336 86.1626C97.2076 87.378 97.2466 87.6118 97.2466 93.4554V98.8548L97.7348 99.4158C98.3402 100.164 98.8869 100.164 99.5118 99.4158L100 98.8315L99.9414 92.9177C99.8828 87.0274 99.8828 87.0274 99.3556 85.8353C98.2425 83.2875 96.075 81.8149 92.189 80.8799L89.7091 80.2956L90.6268 79.1736C92.3453 77.0699 93.263 73.891 93.0873 70.6653C93.0287 69.6369 92.892 68.398 92.7749 67.9305C92.2281 65.8269 90.412 63.653 88.6936 63.0687C87.6001 62.7181 85.5497 62.6012 84.5538 62.8349ZM87.7758 66.1307C88.8108 66.4813 89.9239 67.837 90.2168 69.146C90.5292 70.5485 90.3535 73.4235 89.8653 74.7792C89.3966 76.0648 88.4202 77.4439 87.6196 77.9348C86.8971 78.4023 85.5497 78.4023 84.8272 77.9582C83.2064 76.9297 82.0152 74.1014 82.0152 71.2263C82.0152 69.0759 82.7378 67.2527 83.8704 66.5047C84.8272 65.897 86.5261 65.7334 87.7758 66.1307Z" fill="white"/>
</svg>
